<?xml version="1.0" encoding="UTF-8"?>
<svg xmlns="http://www.w3.org/2000/svg" xmlns:xlink="http://www.w3.org/1999/xlink" width="120px" height="40px" viewBox="0 0 120 40" version="1.1">
<g id="surface1">
<path style=" stroke:none;fill-rule:nonzero;fill:rgb(1.176471%,33.725491%,64.705884%);fill-opacity:1;" d="M 100 11.210938 C 101.6875 11.210938 103.375 11.210938 105.113281 11.210938 C 105.144531 14.253906 105.175781 17.292969 105.207031 20.425781 C 105.476562 20.175781 105.746094 19.925781 106.027344 19.667969 C 106.261719 19.515625 106.472656 19.386719 106.71875 19.261719 C 106.78125 19.230469 106.84375 19.199219 106.910156 19.167969 C 109.046875 18.144531 111.488281 18.3125 113.671875 19.121094 C 114.722656 19.574219 115.671875 20.117188 116.53125 20.902344 C 116.597656 20.957031 116.664062 21.015625 116.734375 21.074219 C 117.988281 22.15625 118.863281 23.652344 119.433594 25.226562 C 119.460938 25.296875 119.484375 25.363281 119.511719 25.4375 C 119.949219 26.710938 120.050781 27.929688 120.046875 29.269531 C 120.046875 29.351562 120.046875 29.433594 120.046875 29.515625 C 120.039062 30.78125 119.964844 31.960938 119.542969 33.160156 C 119.519531 33.226562 119.496094 33.292969 119.472656 33.363281 C 118.515625 36.0625 116.636719 38.070312 114.140625 39.285156 C 113.84375 39.410156 113.546875 39.519531 113.242188 39.621094 C 113.132812 39.65625 113.023438 39.695312 112.90625 39.734375 C 111.105469 40.273438 108.714844 40.257812 106.941406 39.621094 C 106.875 39.597656 106.8125 39.574219 106.746094 39.550781 C 104.695312 38.808594 102.921875 37.441406 101.734375 35.535156 C 101.683594 35.453125 101.683594 35.453125 101.632812 35.371094 C 100.203125 33.042969 99.984375 30.503906 99.988281 27.8125 C 99.988281 27.628906 99.988281 27.449219 99.988281 27.265625 C 99.988281 26.777344 99.988281 26.285156 99.992188 25.796875 C 99.992188 25.28125 99.992188 24.769531 99.992188 24.257812 C 99.992188 23.285156 99.992188 22.316406 99.992188 21.34375 C 99.996094 20.238281 99.996094 19.132812 99.996094 18.027344 C 99.996094 15.757812 99.996094 13.484375 100 11.210938 Z M 106.574219 25.464844 C 105.429688 26.945312 105.085938 28.433594 105.207031 30.308594 C 105.378906 31.6875 106.117188 32.847656 107.125 33.730469 C 108.160156 34.519531 109.320312 34.863281 110.59375 34.773438 C 111.933594 34.550781 113.089844 33.878906 113.910156 32.742188 C 114.8125 31.367188 115.210938 29.875 114.914062 28.207031 C 114.613281 26.734375 113.902344 25.511719 112.703125 24.636719 C 110.683594 23.324219 108.222656 23.617188 106.574219 25.464844 Z M 106.574219 25.464844 "/>
<path style=" stroke:none;fill-rule:nonzero;fill:rgb(95.686275%,38.82353%,6.27451%);fill-opacity:1;" d="M 15.070312 11.117188 C 15.308594 11.117188 15.550781 11.117188 15.800781 11.117188 C 15.828125 14.1875 15.859375 17.261719 15.890625 20.425781 C 16.160156 20.175781 16.433594 19.925781 16.710938 19.667969 C 18.628906 18.421875 21.046875 18.199219 23.226562 18.714844 C 24.820312 19.183594 26.261719 19.925781 27.488281 21.09375 C 27.566406 21.164062 27.640625 21.238281 27.722656 21.3125 C 29.53125 23.097656 30.71875 25.730469 30.808594 28.328125 C 30.8125 28.589844 30.8125 28.851562 30.8125 29.113281 C 30.808594 29.3125 30.8125 29.507812 30.8125 29.703125 C 30.816406 30.902344 30.660156 32.085938 30.257812 33.210938 C 30.234375 33.277344 30.210938 33.34375 30.1875 33.414062 C 29.449219 35.441406 28.113281 37.359375 26.300781 38.480469 C 26.25 38.511719 26.195312 38.546875 26.140625 38.582031 C 23.902344 39.960938 20.945312 40.511719 18.382812 39.84375 C 18.160156 39.777344 17.9375 39.703125 17.71875 39.621094 C 17.632812 39.589844 17.632812 39.589844 17.542969 39.558594 C 16.132812 39.050781 14.980469 38.285156 13.882812 37.246094 C 13.789062 37.160156 13.789062 37.160156 13.695312 37.078125 C 11.757812 35.210938 11 32.386719 10.867188 29.738281 C 10.855469 29.253906 10.855469 28.765625 10.855469 28.28125 C 10.855469 28.140625 10.855469 28 10.855469 27.859375 C 10.855469 27.480469 10.859375 27.101562 10.859375 26.726562 C 10.859375 26.332031 10.859375 25.933594 10.859375 25.539062 C 10.859375 24.789062 10.859375 24.042969 10.859375 23.296875 C 10.863281 22.445312 10.863281 21.589844 10.863281 20.738281 C 10.863281 18.988281 10.867188 17.238281 10.867188 15.488281 C 12.253906 15.488281 13.640625 15.488281 15.070312 15.488281 C 15.070312 14.042969 15.070312 12.601562 15.070312 11.117188 Z M 17.273438 25.503906 C 16.25 26.789062 15.769531 28.265625 15.890625 29.929688 C 16.117188 31.421875 16.699219 32.742188 17.84375 33.710938 C 18.972656 34.566406 20.253906 34.953125 21.648438 34.730469 C 22.953125 34.4375 24.046875 33.640625 24.8125 32.503906 C 25.683594 31.050781 25.914062 29.511719 25.570312 27.839844 C 25.195312 26.417969 24.398438 25.226562 23.179688 24.464844 C 21.128906 23.324219 18.871094 23.746094 17.273438 25.503906 Z M 17.273438 25.503906 "/>
<path style=" stroke:none;fill-rule:nonzero;fill:rgb(1.176471%,33.725491%,64.705884%);fill-opacity:1;" d="M 58.628906 11.210938 C 60.289062 11.210938 61.945312 11.210938 63.652344 11.210938 C 63.652344 14.128906 63.652344 17.042969 63.652344 20.046875 C 64.015625 19.828125 64.375 19.609375 64.75 19.382812 C 66.855469 18.566406 69.132812 18.726562 71.171875 19.683594 C 73.371094 20.773438 74.933594 22.726562 75.765625 25.085938 C 76.265625 26.585938 76.203125 28.140625 76.191406 29.707031 C 76.191406 30.0625 76.191406 30.414062 76.191406 30.765625 C 76.1875 31.433594 76.1875 32.097656 76.183594 32.761719 C 76.179688 33.523438 76.179688 34.28125 76.179688 35.039062 C 76.175781 36.597656 76.171875 38.15625 76.164062 39.714844 C 74.476562 39.714844 72.789062 39.714844 71.050781 39.714844 C 71.050781 39.339844 71.050781 38.96875 71.050781 38.582031 C 71.046875 37.34375 71.042969 36.105469 71.039062 34.867188 C 71.035156 34.117188 71.03125 33.367188 71.03125 32.617188 C 71.03125 31.964844 71.03125 31.308594 71.027344 30.65625 C 71.023438 30.308594 71.023438 29.960938 71.023438 29.617188 C 71.023438 29.230469 71.023438 28.839844 71.019531 28.453125 C 71.019531 28.339844 71.019531 28.226562 71.023438 28.109375 C 71.007812 27.074219 70.722656 26.226562 70.046875 25.464844 C 70.046875 25.402344 70.046875 25.335938 70.046875 25.273438 C 69.996094 25.246094 69.945312 25.222656 69.890625 25.195312 C 69.585938 25.03125 69.296875 24.839844 69.007812 24.648438 C 68.214844 24.199219 67.242188 24.199219 66.367188 24.386719 C 65.871094 24.5625 65.476562 24.8125 65.074219 25.160156 C 64.929688 25.273438 64.929688 25.273438 64.75 25.273438 C 64.722656 25.328125 64.699219 25.378906 64.675781 25.433594 C 64.558594 25.667969 64.425781 25.890625 64.292969 26.117188 C 63.738281 27.074219 63.730469 28.011719 63.726562 29.101562 C 63.726562 29.214844 63.722656 29.332031 63.722656 29.449219 C 63.71875 29.761719 63.71875 30.078125 63.714844 30.390625 C 63.714844 30.71875 63.710938 31.046875 63.710938 31.375 C 63.707031 31.996094 63.699219 32.613281 63.695312 33.234375 C 63.691406 34.011719 63.6875 34.789062 63.679688 35.5625 C 63.671875 36.949219 63.660156 38.332031 63.652344 39.714844 C 61.996094 39.714844 60.339844 39.714844 58.628906 39.714844 C 58.628906 30.308594 58.628906 20.902344 58.628906 11.210938 Z M 58.628906 11.210938 "/>
<path style=" stroke:none;fill-rule:nonzero;fill:rgb(1.176471%,33.725491%,64.705884%);fill-opacity:1;" d="M 79.179688 19.289062 C 80.867188 19.289062 82.554688 19.289062 84.292969 19.289062 C 84.292969 20.152344 84.296875 21.015625 84.300781 21.90625 C 84.300781 22.453125 84.304688 23 84.308594 23.550781 C 84.3125 24.421875 84.316406 25.289062 84.316406 26.160156 C 84.316406 26.792969 84.320312 27.425781 84.324219 28.0625 C 84.328125 28.394531 84.328125 28.730469 84.328125 29.066406 C 84.328125 29.441406 84.332031 29.816406 84.332031 30.191406 C 84.332031 30.300781 84.332031 30.410156 84.332031 30.523438 C 84.347656 31.738281 84.65625 32.832031 85.464844 33.726562 C 86.273438 34.515625 87.144531 34.730469 88.230469 34.703125 C 89.148438 34.640625 89.863281 34.21875 90.503906 33.539062 C 91.148438 32.675781 91.605469 31.671875 91.613281 30.566406 C 91.613281 30.464844 91.613281 30.363281 91.617188 30.261719 C 91.617188 30.152344 91.617188 30.046875 91.617188 29.933594 C 91.617188 29.820312 91.617188 29.703125 91.621094 29.585938 C 91.621094 29.269531 91.625 28.957031 91.625 28.640625 C 91.628906 28.3125 91.628906 27.984375 91.632812 27.65625 C 91.636719 27.03125 91.640625 26.410156 91.644531 25.789062 C 91.648438 25.007812 91.65625 24.230469 91.660156 23.453125 C 91.671875 22.0625 91.679688 20.675781 91.691406 19.289062 C 93.347656 19.289062 95.003906 19.289062 96.710938 19.289062 C 96.710938 26.027344 96.710938 32.769531 96.710938 39.714844 C 95.433594 39.714844 95.433594 39.714844 95.0625 39.359375 C 94.964844 39.207031 94.871094 39.054688 94.78125 38.894531 C 94.734375 38.820312 94.6875 38.742188 94.636719 38.664062 C 94.546875 38.515625 94.457031 38.363281 94.367188 38.210938 C 94.214844 37.945312 94.046875 37.691406 93.882812 37.433594 C 93.84375 37.464844 93.804688 37.496094 93.761719 37.53125 C 91.4375 39.367188 89.300781 40.296875 86.328125 39.972656 C 84.210938 39.632812 82.273438 38.347656 80.941406 36.628906 C 79.296875 34.226562 79.148438 31.535156 79.160156 28.6875 C 79.160156 28.355469 79.160156 28.023438 79.160156 27.691406 C 79.160156 27.066406 79.164062 26.441406 79.164062 25.816406 C 79.167969 25.035156 79.167969 24.25 79.167969 23.46875 C 79.171875 22.074219 79.175781 20.679688 79.179688 19.289062 Z M 79.179688 19.289062 "/>
<path style=" stroke:none;fill-rule:nonzero;fill:rgb(95.686275%,38.82353%,6.27451%);fill-opacity:1;" d="M 43.378906 11.210938 C 45.035156 11.210938 46.695312 11.210938 48.402344 11.210938 C 48.402344 13.875 48.402344 16.542969 48.402344 19.289062 C 50.875 19.289062 53.34375 19.289062 55.890625 19.289062 C 55.890625 21.042969 55.890625 22.800781 55.890625 24.609375 C 53.417969 24.609375 50.949219 24.609375 48.402344 24.609375 C 48.410156 25.683594 48.417969 26.757812 48.425781 27.867188 C 48.425781 28.375 48.425781 28.375 48.429688 28.890625 C 48.433594 29.199219 48.433594 29.199219 48.4375 29.503906 C 48.4375 29.640625 48.4375 29.777344 48.4375 29.910156 C 48.4375 31.136719 48.621094 32.199219 49.40625 33.160156 C 50.089844 33.835938 50.914062 34.300781 51.867188 34.320312 C 51.957031 34.320312 52.050781 34.324219 52.144531 34.324219 C 52.285156 34.328125 52.285156 34.328125 52.429688 34.328125 C 52.5625 34.332031 52.5625 34.332031 52.695312 34.335938 C 53.023438 34.339844 53.347656 34.347656 53.675781 34.351562 C 54.773438 34.375 54.773438 34.375 55.890625 34.394531 C 55.890625 36.148438 55.890625 37.90625 55.890625 39.714844 C 55.210938 39.71875 54.53125 39.722656 53.828125 39.726562 C 53.511719 39.730469 53.511719 39.730469 53.1875 39.730469 C 50.292969 39.746094 47.910156 39.09375 45.78125 36.941406 C 45.210938 36.34375 44.773438 35.699219 44.382812 34.964844 C 44.355469 34.90625 44.324219 34.851562 44.292969 34.792969 C 43.527344 33.304688 43.320312 31.832031 43.34375 30.164062 C 43.34375 30.003906 43.34375 29.84375 43.34375 29.679688 C 43.347656 29.261719 43.351562 28.839844 43.355469 28.421875 C 43.359375 27.992188 43.359375 27.558594 43.359375 27.128906 C 43.363281 26.289062 43.371094 25.449219 43.378906 24.609375 C 42.566406 24.609375 41.75 24.609375 40.914062 24.609375 C 40.914062 22.851562 40.914062 21.097656 40.914062 19.289062 C 41.726562 19.289062 42.539062 19.289062 43.378906 19.289062 C 43.378906 16.621094 43.378906 13.957031 43.378906 11.210938 Z M 43.378906 11.210938 "/>
<path style=" stroke:none;fill-rule:nonzero;fill:rgb(95.686275%,38.82353%,6.27451%);fill-opacity:1;" d="M 33.515625 19.289062 C 35.171875 19.289062 36.832031 19.289062 38.539062 19.289062 C 38.539062 26.027344 38.539062 32.769531 38.539062 39.714844 C 36.882812 39.714844 35.222656 39.714844 33.515625 39.714844 C 33.515625 32.972656 33.515625 26.234375 33.515625 19.289062 Z M 33.515625 19.289062 "/>
<path style=" stroke:none;fill-rule:nonzero;fill:rgb(1.176471%,33.725491%,64.705884%);fill-opacity:1;" d="M 38.050781 10.925781 C 38.863281 11.648438 39.367188 12.4375 39.476562 13.5625 C 39.511719 14.652344 39.175781 15.542969 38.460938 16.339844 C 37.652344 17.128906 36.78125 17.339844 35.699219 17.316406 C 34.78125 17.25 34.0625 16.832031 33.425781 16.152344 C 32.730469 15.179688 32.582031 14.199219 32.695312 13.015625 C 32.890625 12.117188 33.441406 11.363281 34.15625 10.832031 C 35.347656 10.0625 36.910156 10.042969 38.050781 10.925781 Z M 38.050781 10.925781 "/>
<path style=" stroke:none;fill-rule:nonzero;fill:rgb(1.176471%,33.725491%,64.705884%);fill-opacity:1;" d="M 8.765625 9.121094 C 10.484375 9.121094 12.203125 9.121094 13.972656 9.121094 C 13.972656 10.878906 13.972656 12.632812 13.972656 14.441406 C 12.253906 14.441406 10.535156 14.441406 8.765625 14.441406 C 8.765625 12.6875 8.765625 10.929688 8.765625 9.121094 Z M 8.765625 9.121094 "/>
<path style=" stroke:none;fill-rule:nonzero;fill:rgb(95.686275%,38.82353%,6.27451%);fill-opacity:1;" d="M 3.746094 3.894531 C 5.191406 3.894531 6.636719 3.894531 8.128906 3.894531 C 8.128906 5.367188 8.128906 6.84375 8.128906 8.359375 C 6.679688 8.359375 5.234375 8.359375 3.746094 8.359375 C 3.746094 6.886719 3.746094 5.414062 3.746094 3.894531 Z M 3.746094 3.894531 "/>
<path style=" stroke:none;fill-rule:nonzero;fill:rgb(1.176471%,33.725491%,64.705884%);fill-opacity:1;" d="M 0.0898438 0 C 1.144531 0 2.199219 0 3.289062 0 C 3.289062 1.097656 3.289062 2.195312 3.289062 3.324219 C 2.234375 3.324219 1.179688 3.324219 0.0898438 3.324219 C 0.0898438 2.226562 0.0898438 1.128906 0.0898438 0 Z M 0.0898438 0 "/>
<path style=" stroke:none;fill-rule:nonzero;fill:rgb(95.686275%,38.82353%,6.27451%);fill-opacity:1;" d="M 0 9.121094 C 1.023438 9.121094 2.050781 9.121094 3.105469 9.121094 C 3.105469 10.1875 3.105469 11.253906 3.105469 12.351562 C 2.082031 12.351562 1.054688 12.351562 0 12.351562 C 0 11.285156 0 10.21875 0 9.121094 Z M 0 9.121094 "/>
<path style=" stroke:none;fill-rule:nonzero;fill:rgb(95.686275%,38.82353%,6.27451%);fill-opacity:1;" d="M 8.765625 0 C 9.792969 0 10.816406 0 11.871094 0 C 11.871094 1.066406 11.871094 2.132812 11.871094 3.230469 C 10.847656 3.230469 9.824219 3.230469 8.765625 3.230469 C 8.765625 2.164062 8.765625 1.097656 8.765625 0 Z M 8.765625 0 "/>
</g>
</svg>
